<svg width="128" height="128" viewBox="0 0 128 128" fill="none" xmlns="http://www.w3.org/2000/svg">
<path d="M126.671 98.4402C122.111 99.6002 119.291 98.4902 116.761 94.6902C111.081 86.1802 104.811 78.0602 98.7608 69.7902C97.9808 68.7202 97.1708 67.6702 96.1608 66.3402C89.0008 76.0002 81.8508 85.2002 75.1408 94.7702C72.7408 98.1902 70.2208 99.6802 65.7408 98.4702L92.6608 62.3402L67.6008 29.7102C71.9108 28.8702 74.8908 29.3002 77.5308 33.1602C83.3608 41.6802 89.7908 49.7902 96.2008 58.3702C102.651 49.8202 109.001 41.7002 115.001 33.2602C117.411 29.8402 120.001 28.5402 124.331 29.8002C121.051 34.1502 117.841 38.4302 114.611 42.6802C110.251 48.4102 105.971 54.2102 101.451 59.8202C99.8408 61.8202 100.101 63.1202 101.541 65.0102C109.901 76.0002 118.161 87.1002 126.671 98.4402ZM1.33078 61.7402C2.05078 58.1302 2.53078 54.4502 3.53078 50.9102C9.53078 29.4802 34.1308 20.5702 51.0308 33.8502C60.9308 41.6402 63.3908 52.6202 62.9008 65.0002H7.10078C6.26078 87.2102 22.2508 100.62 42.6308 93.7802C49.7808 91.3802 53.9908 85.7802 56.1008 78.7802C57.1708 75.2702 58.9408 74.7202 62.2408 75.7202C60.5508 84.4802 56.7208 91.8002 48.7208 96.3802C36.7208 103.24 19.5908 101.02 10.5808 91.4902C5.26078 85.8902 3.00078 78.9202 2.00078 71.3902C1.85078 70.1902 1.54078 69.0102 1.30078 67.8202C1.32078 65.7935 1.33078 63.7668 1.33078 61.7402ZM7.20078 60.2502H57.6308C57.3008 44.1902 47.3008 32.7802 33.6308 32.6802C18.6308 32.5602 7.85078 43.7002 7.20078 60.2502Z" fill="white"/>
</svg>
