<svg width="800" height="800" viewBox="0 0 800 800" fill="none" xmlns="http://www.w3.org/2000/svg">
<g clip-path="url(#clip0_4073_2)">
<path d="M593.725 750.125C590.75 751.7 591 752.2 593.85 750.75C594.775 750.375 595.55 749.85 596.225 749.225C596.225 748.7 596.225 748.7 593.725 750.125ZM599.725 746.875C598.3 748.05 598.3 748.05 600 747.275C600.9 746.75 601.7 746.25 601.7 746.1C601.7 745.425 601.3 745.575 599.725 746.875ZM603.625 744.525C602.2 745.7 602.2 745.7 603.9 744.925C604.825 744.4 605.6 743.85 605.6 743.725C605.6 743.1 605.2 743.225 603.625 744.525ZM607.575 742.2C606.15 743.375 606.15 743.375 607.8 742.575C608.725 742.075 609.5 741.55 609.5 741.4C609.5 740.775 609.1 740.9 607.575 742.2ZM612.9 738.675C610.175 740.5 609.225 741.675 611.725 740.375C613.4 739.35 616.25 737.1 615.75 737.1C614.675 737.5 613.775 738.175 612.875 738.675H612.9ZM373.825 0.275059C372 0.400059 366.525 0.900059 361.725 1.30006C248.025 11.6001 141.65 72.8001 74.225 167.075C36.95 218.75 12.75 278.775 3.625 341.8C0.4 363.8 0 370.3 0 400.125C0 429.925 0.4 436.325 3.625 458.325C25.4 608.6 132.3 734.75 277.2 781.5C303.275 789.825 330.6 795.575 361.725 799.1C373.825 800.4 426.15 800.4 438.25 799.1C492.05 793.1 537.475 779.825 582.425 756.9C589.325 753.4 590.625 752.475 589.7 751.7C567.7 722.675 546.1 693.625 524.475 664.325L460.55 578L380.475 459.375C353.775 419.675 326.975 380.075 299.75 340.775C299.475 340.775 299.125 393.5 298.975 457.8C298.7 570.425 298.7 575 297.275 577.6C295.85 580.725 293.5 583.325 290.375 584.775C287.9 585.95 285.675 586.2 273.85 586.2H260.325L256.8 584C254.6 582.575 252.775 580.6 251.6 578.275L249.9 574.75L250.025 417.975L250.3 261.2L252.775 258.075C254.35 256.15 256.3 254.575 258.5 253.4C261.775 251.825 263.075 251.575 276.6 251.575C292.475 251.575 295.1 252.2 299.275 256.775C331.675 305.075 363.975 353.5 395.75 402.075C447.725 480.875 518.675 588.4 553.55 641.15L616.975 737.125L620.1 735.05C650.575 714.725 678.3 690.525 702.225 662.925C752.625 605.225 785.325 534.25 796.4 458.5C799.625 436.5 800.025 429.975 800.025 400.175C800.025 370.35 799.625 363.975 796.4 341.975C774.625 191.7 667.725 65.5501 522.825 18.7751C495.725 10.2001 467.85 4.35006 439.625 1.35006C432.05 0.575059 380.35 -0.349941 373.85 0.325059L373.825 0.275059ZM537.5 242.2C541.275 244 544.125 247.4 545.425 251.3C546.1 253.4 546.225 296.875 546.1 394.8L545.825 535.4L521.1 497.4L496.225 459.375V357.3C496.225 291.125 496.5 254.025 496.85 252.2C498.025 248.025 500.875 244.525 504.675 242.325C507.775 240.75 508.975 240.625 521.35 240.625C532.925 240.625 534.9 240.75 537.5 242.2Z" fill="white"/>
</g>
<defs>
<clipPath id="clip0_4073_2">
<rect width="800" height="800" fill="white"/>
</clipPath>
</defs>
</svg>
