<svg width="800" height="800" viewBox="0 0 800 800" fill="none" xmlns="http://www.w3.org/2000/svg">
<g clip-path="url(#clip0_4077_2)">
<path d="M397.925 0.524953C364.45 0.649953 331.125 4.82495 298.7 13.15C142.7 51.95 18.8751 193.225 3.0001 353.475C-16.6749 505.05 60.0251 663 191.125 741.25C319.925 821.85 494.25 818.625 620.3 733.85C733.6 660.275 804.025 526.275 799.875 390.975C797.95 257.15 722.8 127.05 607.8 58.3C545.175 19.625 471.5 0.224953 397.925 0.499953V0.524953ZM395.7 57.025C560.525 56.75 722 184.225 738.525 354.55C770.05 543.225 613.4 735.025 422.25 740.625C240.475 758.725 64.6751 604.55 59.4751 422C45.9501 274.225 143.475 127.475 282.775 78.625C318.7 64.325 357 57.025 395.675 57.15L395.7 57.025ZM565.5 164.6C475.9 234.1 390.1 308.2 302.475 379.825C342.575 380.325 382.95 380.325 423.175 380.05C470.175 307.925 518.5 236.75 565.5 164.6ZM376.7 419.675C329.7 491.95 281.275 563.275 234.225 635.55C324.1 566.15 409.5 491.55 497.65 420.325C457.275 419.825 416.925 419.7 376.675 419.7L376.7 419.675Z" fill="white"/>
</g>
<defs>
<clipPath id="clip0_4077_2">
<rect width="800" height="800" fill="white"/>
</clipPath>
</defs>
</svg>
